# xmcd CD Database Entry
#
# Track frame offsets:
# 150
# 10604
# 25312
# 38108
# 51079
# 62250
# 76753
# 88161
# 99757
# 113065
# 125584
# 138193
# 151039
# 165810
# 178881
# 193877
# 209865
# 225166
# 239040
# 252361
# 266969
# 282003
# 293236
# 307220
# 318361
#
# Disc length: 4382 seconds
#
# Revision: 2
# Processed by: cddbd v1.4PL0 Copyright (c) Steve Scherf et al.
# Submitted via: tcd 2.0b
#
DISCID=55111c19
DTITLE=Two on One - Sidney Bechet and Jelly Roll Morton
DYEAR=1900
DGENRE=
TTITLE0=Summertime
TTITLE1=I Thought I Heard Buddy Bolden Say
TTITLE2=Polka Dot Road
TTITLE3=High Society
TTITLE4=Chant In The Night
TTITLE5=Winnin' Boy Blues
TTITLE6=Jungle Drums
TTITLE7=T'ain't Right For Man Or Beast
TTITLE8=Characteristic Blues
TTITLE9=Black Stick Blues
TTITLE10=Oh Didn't He Ramble
TTITLE11=West End Blues
TTITLE12=I Thought I Heard Buddy Balden Say
TTITLE13=Kansas City Stomp
TTITLE14=Shoe Shine Drag
TTITLE15=Deep Creek
TTITLE16=The Chant
TTITLE17=Jelly Roll Blues
TTITLE18=Shreverport Stomp
TTITLE19=Turtle Twist
TTITLE20=Beale Street Blues
TTITLE21=Georgia Swings
TTITLE22=Wild Mans Blues
TTITLE23=Doctor Jazz
TTITLE24=Ballin' The Jack
EXTD=
EXTT0=Sidney Bechet
EXTT1=Sidney Bechet
EXTT2=Sidney Bechet
EXTT3=Sidney Bechet
EXTT4=Sidney Bechet
EXTT5=Sidney Bechet
EXTT6=Sidney Bechet
EXTT7=Sidney Bechet
EXTT8=Sidney Bechet
EXTT9=Sidney Bechet
EXTT10=Jelly Roll Morton
EXTT11=Jelly Roll Morton
EXTT12=Jelly Roll Morton
EXTT13=Jelly Roll Morton
EXTT14=Jelly Roll Morton
EXTT15=Jelly Roll Morton
EXTT16=Jelly Roll Morton
EXTT17=Jelly Roll Morton
EXTT18=Jelly Roll Morton
EXTT19=Jelly Roll Morton
EXTT20=Jelly Roll Morton
EXTT21=Jelly Roll Morton
EXTT22=Jelly Roll Morton
EXTT23=Jelly Roll Morton
EXTT24=Jelly Roll Morton
PLAYORDER=
